# xmcd CD database file
#
# Track frame offsets:
#	150
#	29835
#	52410
#	81060
#	101120
#	121820
#	147920
#	169295
#	198395
#	225655
#
# Disc length: 3443 seconds
#
# Revision: 0
# Processed by: cddbd v1.5.2PL0 Copyright (c) Steve Scherf et al.
# Submitted via: CDex 1.70beta2
#
DISCID=910d710a
DTITLE=Immigrant's Bossa Band - A Song For You
DYEAR=2009
DGENRE=Jazz
TTITLE0=A Song For You
TTITLE1=Skindo Le Le
TTITLE2=Back In The Day
TTITLE3=What You Get
TTITLE4=Taj Mahal
TTITLE5=Discova
TTITLE6=PATO featuring タブゾンビ (SOIL&"PIMP"SESSIONS)
TTITLE7=A Song For You (Take It Slow Mix)
TTITLE8=PATO featuring Ai Ichikawa (Little Classic Remix)
TTITLE9=BONITO (Analog Mix)
EXTD=YEAR: 2009
EXTT0=
EXTT1=
EXTT2=
EXTT3=
EXTT4=
EXTT5=
EXTT6=
EXTT7=
EXTT8=
EXTT9=
PLAYORDER=
